<svg width="111" height="40" viewBox="0 0 111 40" fill="none" xmlns="http://www.w3.org/2000/svg">
<path d="M48.9063 15.3764L48.8576 14.5481L48.0391 14.4409C47.8637 14.4214 44.4825 14.0024 40.2437 14.4507C40.3606 15.0938 40.4581 15.7564 40.5263 16.4287C43.3229 16.1461 45.7395 16.2533 46.9575 16.341C47.0549 18.8356 47.1913 26.134 45.7492 29.447C44.005 33.4811 41.7248 35.9464 38.7821 36.9598C35.9368 37.9537 32.4873 37.5055 28.5214 35.6541C27.4983 35.9756 26.4459 36.19 25.3838 36.2874C25.7053 36.4628 25.9587 36.5895 26.0951 36.6675C31.2011 39.4153 35.6932 40.1462 39.4447 38.8404C41.5105 38.1194 43.3326 36.7844 44.8722 34.8745C45.8954 33.598 46.7821 32.0779 47.5811 30.2363C49.5007 25.8124 48.9258 15.8051 48.9063 15.3764Z" fill="#FDFDEF"/>
<path d="M36.5109 6.58709C36.3842 6.13886 36.0042 4.83314 35.6047 3.48843C35.3708 2.7089 35.0688 1.62729 34.8544 0.886727C34.7082 0.370284 34.2308 0.00974778 33.6851 0.00974778H33.6364C32.9933 0.00974778 32.4573 0.516446 32.4281 1.15956C32.3112 3.27406 32.0383 7.69793 31.8045 9.00366C31.785 9.13033 31.7557 9.25701 31.7363 9.39343C31.7363 9.39343 31.4829 10.8551 31.288 11.4982C31.2003 11.7808 31.1224 11.9854 31.0542 12.1218C30.9957 11.9464 30.9275 11.732 30.869 11.4884C30.7229 10.8648 30.6059 10.134 30.528 9.59805C30.4793 9.30573 30.4403 9.03289 30.4013 8.82826C30.3526 8.44824 29.4756 3.25457 29.0956 1.02314C28.9981 0.43849 28.4914 0.00974778 27.897 0.00974778H27.7411C27.1662 0.00974778 26.6693 0.409257 26.5523 0.974422C26.1723 2.81608 25.3538 6.76249 25.0225 8.20463C24.7594 9.3447 24.3501 11.3228 24.165 12.0828C24.165 12.0828 23.2296 7.68819 22.947 6.19732L21.9433 0.993911C21.8361 0.419002 21.3294 0.00974778 20.7545 0.00974778H20.6279C20.0627 0.00974778 19.5657 0.399518 19.4391 0.954938C19.1955 2.0268 18.8057 3.7905 18.5621 5.10597C18.2405 6.79172 17.9092 8.53594 17.5487 9.94885C17.2953 10.933 17.081 11.7223 16.9251 12.0633C16.6912 11.4689 16.3209 9.92936 15.9409 7.05481C15.6973 5.20341 15.4829 2.59196 15.366 1.12058C15.3173 0.487211 14.7911 0 14.1577 0C13.612 0 13.1345 0.36054 12.9884 0.886727C12.7838 1.59805 12.5012 2.60171 12.2868 3.39099L12.2771 3.42022C11.1272 7.56151 9.69484 12.7065 9.45124 13.8368C8.77889 16.9744 8.80812 19.9367 9.51945 22.6456C10.1333 24.9647 11.3416 27.1669 13.0079 29.0183C14.6449 30.8307 16.7009 32.2728 18.9421 33.1985L18.9616 33.2083C18.9713 33.218 18.9908 33.218 19.0006 33.2278L19.059 33.2473L19.1078 33.1985L19.1175 33.1888C19.4488 32.7406 19.7606 32.2631 20.0529 31.7564L20.1114 31.659L20.0042 31.62C19.897 31.581 19.7899 31.5323 19.6924 31.4933L19.6534 31.4738L19.6242 31.4641C15.5121 29.7686 12.4135 26.2996 11.3221 22.1778C10.679 19.732 10.6595 17.1303 11.2734 14.2363C11.3319 13.944 11.517 13.2619 11.7704 12.3167C12.3453 10.1535 13.2807 6.46042 13.8069 3.74178C13.8264 3.99513 13.8459 4.46285 13.8654 4.74543C13.9531 5.87576 14.0505 7.162 14.1577 7.92205C14.3916 9.58831 14.6546 10.9038 14.9372 11.849C15.2588 12.9208 15.7655 14.1389 16.8861 14.1389C18.1528 14.1389 18.757 12.5895 19.2247 10.9135C19.6534 9.37393 20.0335 7.38612 20.394 5.46651V5.44702C20.5109 4.83313 20.6279 4.34592 20.7448 3.75152C20.9299 4.65773 21.1151 5.51523 21.2905 6.4799L21.3002 6.54811C21.6218 8.27284 21.9531 10.0463 22.2844 11.3812C22.4695 12.1316 22.6449 12.6967 22.8106 13.106C22.947 13.4275 23.2978 14.285 24.1455 14.285C25.1784 14.285 25.5194 13.1937 25.6948 12.5993C25.9384 11.81 26.2405 10.4848 26.6498 8.65287C26.7667 8.12668 26.9031 7.50305 27.0395 6.84044C27.2442 5.88551 27.4683 4.81364 27.7314 3.67357C28.0919 5.83679 28.4232 8.30207 28.5207 9.05238L28.5304 9.13033C28.5694 9.30573 28.6084 9.57857 28.6473 9.85141C28.9689 11.9269 29.3294 14.2753 30.8983 14.2753C31.8045 14.2753 32.4963 13.6224 32.9445 12.3362C33.1199 11.849 33.3051 10.8453 33.5097 9.37394C33.5194 9.32522 33.5194 9.28624 33.5194 9.27649C33.6851 8.23386 33.8215 5.42753 33.8897 3.7028C34.0749 4.43362 34.2892 5.43728 34.4451 6.11937C34.5523 6.57735 34.6303 6.94763 34.6693 7.08405C36.0529 11.9562 37.6218 17.4714 36.2186 22.4604C35.2637 25.8514 33.0127 28.726 29.8751 30.5286L29.8166 30.5579C28.4622 31.3666 27.0006 31.8928 25.4707 32.1267L25.4123 32.1364L25.3928 32.1949C25.2564 32.5457 25.1004 32.8867 24.9445 33.218C24.8276 33.4616 24.7009 33.7052 24.584 33.9294L24.4963 34.0853L24.6717 34.0755C25.0615 34.0658 25.2856 34.0365 25.2953 34.0365H25.3246C27.2539 33.8124 29.0858 33.1791 30.7911 32.1657L30.83 32.1462C32.5743 31.1425 34.0846 29.8368 35.3124 28.268C36.5694 26.6797 37.4756 24.8965 38.0213 22.9671C39.5998 17.4909 37.9628 11.6931 36.5109 6.58709Z" fill="#FDFDEF"/>
<path d="M35.0499 17.5299C35.0012 16.8575 34.9038 16.1949 34.7868 15.5323C34.134 15.7272 33.5104 15.9416 32.9062 16.1852C31.3764 16.7893 30.0024 17.5396 28.8136 18.4264C28.7454 18.4751 28.687 18.5141 28.6285 18.5628C27.2643 19.6054 26.1437 20.8332 25.2765 22.2266C24.5554 21.4958 23.7272 20.765 23.2594 20.346C22.3922 19.6054 21.4665 18.9233 20.4726 18.2997C20.0926 18.0658 19.7125 17.832 19.313 17.6176C18.3094 17.0622 17.2375 16.5652 16.1267 16.1365C16.0195 16.0878 15.9026 16.0488 15.7954 16.0098C15.4543 15.8831 15.1133 15.7662 14.7722 15.6493C14.2558 15.4739 13.7393 15.3277 13.2034 15.1815C13.067 15.8441 12.9501 16.5068 12.8819 17.1694C15.8441 17.9879 19.0987 19.4203 21.9537 21.8563C22.8015 22.5871 23.7564 23.4934 24.3021 24.0877C23.9415 24.9258 23.659 25.8222 23.4446 26.7577C23.1328 28.1803 22.7333 29.486 22.246 30.6651C22.246 30.6651 22.0414 31.2595 21.5737 32.1267C21.5445 32.1852 21.5055 32.2534 21.4762 32.3119C21.2521 32.7114 20.9793 33.1694 20.6577 33.6371C20.5603 33.7832 20.4531 33.9294 20.3459 34.0756C19.9854 34.5628 19.5761 35.0597 19.0987 35.547C18.6115 36.0147 18.095 36.4239 17.5591 36.765C15.6882 37.944 14.0317 38.0025 13.7199 38.0025C13.6906 38.0025 13.6711 38.0025 13.6711 38.0025H13.6322H13.5932C13.525 38.0025 9.58831 37.9927 6.34348 34.7869C3.46894 31.9416 2.00731 27.4885 2.00731 21.564V16.1267C2.57247 16.078 3.38124 16.039 4.3849 16.039C5.26188 16.039 6.29476 16.078 7.41535 16.1754C7.50305 15.5031 7.61023 14.8502 7.73691 14.2071C6.4799 14.0902 5.33983 14.0512 4.36541 14.0512C2.28989 14.0512 0.954932 14.2363 0.867235 14.2461L0 14.363V21.564C0 28.0439 1.65652 32.9745 4.93057 36.2096C8.65286 39.8929 13.1157 40.0001 13.5737 40.0001C13.6029 40.0001 13.6516 40.0001 13.7101 40.0001C14.3045 40.0001 16.2728 39.8831 18.4848 38.5287C19.5079 37.905 20.4434 37.0963 21.2911 36.1219C21.2911 36.1219 21.8563 35.508 22.5286 34.5043C22.6456 34.3387 22.7625 34.1535 22.8794 33.9586C23.1328 33.5494 23.3959 33.0817 23.6297 32.5847C23.6687 32.497 23.7077 32.4093 23.7467 32.3216C23.961 31.8441 24.1657 31.3374 24.3313 30.8015C24.7503 29.6809 25.1011 28.4726 25.3934 27.1767C26.4458 22.4507 29.6906 19.2059 35.0499 17.5299Z" fill="#FDFDEF"/>
<path d="M63.717 17.5591C61.6902 17.5591 60.0142 16.8868 58.689 15.5518C57.3638 14.2071 56.7109 12.5603 56.7109 10.6115C56.7109 8.66266 57.3735 7.01589 58.689 5.67119C60.0142 4.32648 61.6902 3.66388 63.717 3.66388C64.9448 3.66388 66.0654 3.95621 67.0983 4.54086C68.1214 5.12551 68.9302 5.91479 69.5051 6.91844L67.9558 7.81491C67.5757 7.07435 67.0008 6.47995 66.2408 6.04146C65.4807 5.60297 64.6427 5.37886 63.7268 5.37886C62.1774 5.37886 60.9204 5.87581 59.946 6.86972C58.9716 7.86363 58.4844 9.1109 58.4844 10.6018C58.4844 12.0829 58.9716 13.3204 59.946 14.3143C60.9204 15.3082 62.1872 15.8052 63.7268 15.8052C64.6427 15.8052 65.4807 15.5811 66.2408 15.1426C67.0008 14.7041 67.5757 14.1194 67.9558 13.3886L69.5051 14.2656C68.9399 15.2595 68.1409 16.0585 67.108 16.6529C66.0751 17.2668 64.9448 17.5591 63.717 17.5591Z" fill="#FDFDEF"/>
<path d="M76.1614 7.49328C77.282 7.49328 78.1882 7.84407 78.8605 8.5554C79.5329 9.26673 79.8739 10.2217 79.8739 11.4397V17.3154H78.2077V11.5371C78.2077 10.7576 77.9933 10.1535 77.5743 9.72471C77.1553 9.29596 76.5706 9.08158 75.8301 9.08158C75.0018 9.08158 74.3295 9.34468 73.8228 9.86112C73.3161 10.3776 73.053 11.1766 73.053 12.2485V17.3252H71.3867V3.90741H73.053V9.12056C73.7448 8.02921 74.7777 7.49328 76.1614 7.49328Z" fill="#FDFDEF"/>
<path d="M83.3625 13.2911C83.5281 14.1486 83.9179 14.8112 84.5415 15.279C85.1652 15.7467 85.9252 15.9903 86.8314 15.9903C88.0982 15.9903 89.0141 15.5226 89.589 14.5969L91.002 15.4056C90.0665 16.8478 88.6633 17.5688 86.7924 17.5688C85.2723 17.5688 84.0348 17.0914 83.0896 16.1462C82.1347 15.1913 81.667 13.9927 81.667 12.5408C81.667 11.0987 82.1347 9.90015 83.0604 8.94522C83.9959 7.99029 85.1944 7.51282 86.6755 7.51282C88.0787 7.51282 89.2285 8.00977 90.1152 8.99394C91.002 9.98785 91.4502 11.1766 91.4502 12.5701C91.4502 12.8137 91.4307 13.0573 91.3917 13.3204H83.3625V13.2911ZM86.6755 9.06214C85.7791 9.06214 85.0385 9.3155 84.4538 9.8222C83.8692 10.3289 83.4989 11.0012 83.3625 11.8392H89.7547C89.6183 10.933 89.2577 10.2412 88.6828 9.77348C88.1177 9.29601 87.4453 9.06214 86.6755 9.06214Z" fill="#FDFDEF"/>
<path d="M97.9972 5.27161C96.3114 5.13519 95.4735 5.85626 95.4735 7.45431V7.7369H97.9972V9.34469H95.4735V17.3155H93.8072V9.34469H92.2773V7.7369H93.8072V7.45431C93.8072 6.16808 94.1677 5.18391 94.8888 4.52131C95.6099 3.8587 96.6427 3.56637 97.9972 3.66382V5.27161Z" fill="#FDFDEF"/>
<path d="M65.1403 24.3898H59.206V28.7357H64.8967V30.4215H59.206V36.1121H57.4229V22.704H65.1403V24.3898Z" fill="#FDFDEF"/>
<path d="M67.9653 24.7893C67.6437 24.7893 67.3806 24.6821 67.1565 24.4677C66.9421 24.2533 66.835 23.9902 66.835 23.6784C66.835 23.3764 66.9421 23.1035 67.1565 22.8794C67.3709 22.6553 67.6437 22.5481 67.9653 22.5481C68.2674 22.5481 68.5304 22.6553 68.7546 22.8794C68.9689 23.1035 69.0761 23.3666 69.0761 23.6784C69.0761 23.9805 68.9689 24.2436 68.7546 24.4677C68.5402 24.6821 68.2771 24.7893 67.9653 24.7893ZM67.1273 36.112V26.5335H68.7935V36.112H67.1273Z" fill="#FDFDEF"/>
<path d="M76.1116 26.2899C77.2322 26.2899 78.1384 26.6407 78.8107 27.352C79.4831 28.0634 79.8241 29.0183 79.8241 30.2363V36.1121H78.1579V30.3338C78.1579 29.5542 77.9435 28.9501 77.5245 28.5213C77.1055 28.0926 76.5208 27.8782 75.7803 27.8782C74.952 27.8782 74.2797 28.1413 73.773 28.6578C73.2663 29.1742 73.0032 29.9732 73.0032 31.0451V36.1218H71.3369V26.5433H73.0032V27.9172C73.6853 26.8258 74.7182 26.2899 76.1116 26.2899Z" fill="#FDFDEF"/>
<path d="M90.0664 22.704H91.7326V36.1121H90.0664V34.4653C89.2381 35.7321 88.0298 36.3654 86.4513 36.3654C85.1066 36.3654 83.9665 35.8782 83.0213 34.9038C82.0761 33.9294 81.6084 32.7406 81.6084 31.3277C81.6084 29.9245 82.0761 28.7357 83.0213 27.7515C83.9665 26.7771 85.1066 26.2899 86.4513 26.2899C88.0298 26.2899 89.2381 26.9233 90.0664 28.19V22.704ZM86.6559 34.7479C87.6303 34.7479 88.4391 34.4166 89.092 33.7637C89.7448 33.1109 90.0664 32.2923 90.0664 31.3179C90.0664 30.3435 89.7448 29.5347 89.092 28.8721C88.4391 28.2193 87.6303 27.888 86.6559 27.888C85.701 27.888 84.8922 28.2193 84.2393 28.8721C83.5865 29.525 83.2649 30.3435 83.2649 31.3179C83.2649 32.2923 83.5865 33.1011 84.2393 33.7637C84.9019 34.4166 85.701 34.7479 86.6559 34.7479Z" fill="#FDFDEF"/>
<path d="M95.425 32.0877C95.5906 32.9452 95.9804 33.6078 96.604 34.0755C97.2277 34.5433 97.9877 34.7869 98.8939 34.7869C100.161 34.7869 101.077 34.3191 101.652 33.3934L103.064 34.2022C102.129 35.6443 100.726 36.3654 98.8549 36.3654C97.3348 36.3654 96.0973 35.888 95.1521 34.9428C94.1972 33.9878 93.7295 32.7893 93.7295 31.3374C93.7295 29.8953 94.1972 28.6967 95.1229 27.7418C96.0584 26.7869 97.2569 26.3094 98.738 26.3094C100.141 26.3094 101.291 26.8063 102.178 27.7905C103.064 28.7844 103.513 29.9732 103.513 31.3666C103.513 31.6102 103.493 31.8538 103.454 32.1169H95.425V32.0877ZM98.738 27.8587C97.8416 27.8587 97.101 28.1121 96.5163 28.6188C95.9317 29.1255 95.5614 29.7978 95.425 30.6358H101.817C101.681 29.7296 101.32 29.0378 100.745 28.57C100.18 28.0926 99.5078 27.8587 98.738 27.8587Z" fill="#FDFDEF"/>
<path d="M107.089 28.1413C107.635 26.9525 108.638 26.3581 110.081 26.3581V28.1023C109.262 28.0633 108.561 28.2777 107.976 28.7552C107.391 29.2229 107.099 29.9829 107.099 31.0353V36.1121H105.433V26.5335H107.099V28.1413H107.089Z" fill="#FDFDEF"/>
</svg>
