<svg width="142" height="52" viewBox="0 0 142 52" fill="none" xmlns="http://www.w3.org/2000/svg">
<path d="M62.8278 19.7535L62.7652 18.6895L61.7137 18.5518C61.4884 18.5267 57.1446 17.9885 51.6993 18.5643C51.8495 19.3905 51.9747 20.2417 52.0623 21.1055C55.655 20.7424 58.7595 20.8801 60.3242 20.9928C60.4494 24.1974 60.6246 33.5734 58.772 37.8295C56.5313 43.0119 53.6021 46.179 49.8216 47.4809C46.1664 48.7577 41.735 48.1819 36.6402 45.8035C35.3258 46.2166 33.9738 46.492 32.6094 46.6171C33.0225 46.8425 33.3479 47.0052 33.5232 47.1053C40.0826 50.6354 45.8534 51.5743 50.6728 49.8968C53.3267 48.9705 55.6675 47.2555 57.6454 44.802C58.9598 43.1622 60.0989 41.2094 61.1254 38.8435C63.5914 33.1603 62.8529 20.3043 62.8278 19.7535Z" fill="#B22222"/>
<path d="M46.9056 8.46217C46.7429 7.88634 46.2547 6.20893 45.7414 4.48145C45.441 3.48001 45.0529 2.09051 44.7775 1.13914C44.5898 0.475688 43.9764 0.0125226 43.2754 0.0125226H43.2128C42.3866 0.0125226 41.6981 0.663457 41.6606 1.48964C41.5103 4.20605 41.1598 9.88922 40.8594 11.5666C40.8344 11.7294 40.7968 11.8921 40.7718 12.0673C40.7718 12.0673 40.4463 13.945 40.1959 14.7712C40.0833 15.1343 39.9831 15.3971 39.8955 15.5724C39.8204 15.3471 39.7328 15.0717 39.6577 14.7587C39.4699 13.9576 39.3197 13.0187 39.2195 12.3302C39.157 11.9547 39.1069 11.6042 39.0568 11.3413C38.9942 10.8531 37.8676 4.18101 37.3794 1.31439C37.2542 0.56331 36.6033 0.0125226 35.8397 0.0125226H35.6394C34.9008 0.0125226 34.2624 0.525756 34.1122 1.2518C33.624 3.6177 32.5725 8.68749 32.1469 10.5402C31.8089 12.0048 31.2831 14.5459 31.0453 15.5223C31.0453 15.5223 29.8436 9.8767 29.4806 7.96145L28.1912 1.27684C28.0535 0.538275 27.4026 0.0125226 26.664 0.0125226H26.5013C25.7752 0.0125226 25.1368 0.513244 24.9741 1.22677C24.6611 2.60375 24.1604 4.8695 23.8475 6.55943C23.4344 8.72505 23.0087 10.9658 22.5456 12.7809C22.2201 14.0452 21.9447 15.0592 21.7444 15.4973C21.444 14.7337 20.9683 12.7558 20.4801 9.06303C20.1672 6.68461 19.8918 3.32979 19.7416 1.43957C19.679 0.6259 19.003 0 18.1893 0C17.4883 0 16.8749 0.46317 16.6872 1.13914C16.4243 2.05296 16.0613 3.34231 15.7859 4.35627L15.7733 4.39382C14.2962 9.71397 12.4561 16.3235 12.1431 17.7756C11.2794 21.8063 11.3169 25.6118 12.2308 29.0918C13.0194 32.0711 14.5716 34.9002 16.7122 37.2786C18.8152 39.6069 21.4565 41.4596 24.3357 42.6488L24.3607 42.6613C24.3732 42.6739 24.3982 42.6738 24.4108 42.6864L24.4859 42.7114L24.5485 42.6488L24.561 42.6363C24.9866 42.0605 25.3872 41.4471 25.7627 40.7961L25.8378 40.671L25.7001 40.6209C25.5624 40.5708 25.4247 40.5082 25.2995 40.4582L25.2495 40.4331L25.2119 40.4206C19.9293 38.2425 15.9486 33.7861 14.5466 28.491C13.7204 25.3489 13.6954 22.0066 14.484 18.2888C14.5591 17.9133 14.7969 17.037 15.1224 15.8227C15.861 13.0438 17.0627 8.29943 17.7387 4.80691C17.7637 5.13238 17.7887 5.73324 17.8138 6.09626C17.9264 7.54835 18.0516 9.20073 18.1893 10.1771C18.4897 12.3177 18.8277 14.0076 19.1908 15.2219C19.6039 16.5989 20.2548 18.1636 21.6944 18.1636C23.3217 18.1636 24.0978 16.1732 24.6987 14.0202C25.2495 12.0423 25.7377 9.48864 26.2008 7.0226V6.99756C26.351 6.20893 26.5013 5.58303 26.6515 4.81943C26.8893 5.9836 27.1272 7.08519 27.3525 8.32447L27.365 8.41209C27.7781 10.6278 28.2037 12.9061 28.6293 14.621C28.8672 15.5849 29.0925 16.3109 29.3053 16.8367C29.4806 17.2498 29.9312 18.3514 31.0203 18.3514C32.3472 18.3514 32.7853 16.9494 33.0106 16.1858C33.3236 15.1718 33.7116 13.4694 34.2374 11.116C34.3876 10.44 34.5629 9.63886 34.7381 8.78763C35.001 7.56087 35.2889 6.18389 35.6269 4.71929C36.09 7.49828 36.5157 10.6653 36.6408 11.6292L36.6534 11.7294C36.7034 11.9547 36.7535 12.3052 36.8036 12.6557C37.2167 15.322 37.6798 18.3389 39.6952 18.3389C40.8594 18.3389 41.7482 17.5002 42.324 15.8478C42.5493 15.2219 42.7872 13.9325 43.0501 12.0423C43.0626 11.9797 43.0626 11.9297 43.0626 11.9171C43.2754 10.5777 43.4506 6.97252 43.5383 4.75684C43.7761 5.69569 44.0515 6.98505 44.2518 7.86131C44.3895 8.44965 44.4896 8.92533 44.5397 9.10058C46.3173 15.3596 48.3327 22.4448 46.5301 28.854C45.3033 33.2102 42.4116 36.9031 38.3808 39.2189L38.3057 39.2564C36.5657 40.2954 34.688 40.9714 32.7227 41.2718L32.6476 41.2844L32.6226 41.3595C32.4473 41.8101 32.247 42.2482 32.0467 42.6738C31.8965 42.9868 31.7338 43.2997 31.5836 43.5877L31.4709 43.788L31.6962 43.7754C32.197 43.7629 32.4849 43.7254 32.4974 43.7254H32.5349C35.0135 43.4374 37.3669 42.6238 39.5575 41.3219L39.6076 41.2969C41.8483 40.0075 43.7886 38.3301 45.3659 36.3147C46.9807 34.2743 48.1449 31.9835 48.8459 29.5049C50.8738 22.4698 48.7708 15.0216 46.9056 8.46217Z" fill="#B22222"/>
<path d="M45.0272 22.52C44.9646 21.6562 44.8395 20.805 44.6892 19.9538C43.8505 20.2041 43.0494 20.4795 42.2733 20.7925C40.3079 21.5686 38.5429 22.5325 37.0157 23.6716C36.9281 23.7342 36.853 23.7843 36.7779 23.8469C35.0253 25.1863 33.5858 26.7636 32.4717 28.5536C31.5453 27.6148 30.4813 26.6759 29.8805 26.1377C28.7664 25.1863 27.5771 24.31 26.3003 23.5089C25.8121 23.2084 25.3239 22.908 24.8107 22.6326C23.5213 21.9191 22.1443 21.2807 20.7173 20.7299C20.5796 20.6673 20.4294 20.6172 20.2917 20.5671C19.8535 20.4044 19.4154 20.2542 18.9773 20.104C18.3138 19.8787 17.6504 19.6909 16.9619 19.5031C16.7866 20.3543 16.6364 21.2056 16.5488 22.0568C20.3543 23.1083 24.5353 24.9484 28.203 28.0779C29.2921 29.0168 30.5189 30.181 31.2199 30.9446C30.7567 32.0211 30.3937 33.1728 30.1183 34.3745C29.7177 36.2021 29.2045 37.8795 28.5786 39.3942C28.5786 39.3942 28.3157 40.1578 27.7148 41.2719C27.6773 41.347 27.6272 41.4346 27.5897 41.5098C27.3017 42.023 26.9512 42.6113 26.5381 43.2122C26.413 43.4 26.2753 43.5877 26.1376 43.7755C25.6744 44.4014 25.1487 45.0398 24.5353 45.6657C23.9094 46.2666 23.2459 46.7923 22.5574 47.2305C20.154 48.7452 18.0259 48.8203 17.6253 48.8203C17.5878 48.8203 17.5627 48.8203 17.5627 48.8203H17.5127H17.4626C17.375 48.8203 12.3177 48.8077 8.14922 44.6893C4.45641 41.0341 2.57871 35.3133 2.57871 27.7024V20.7174C3.30475 20.6548 4.34374 20.6047 5.6331 20.6047C6.75972 20.6047 8.08663 20.6548 9.52619 20.7799C9.63886 19.9162 9.77655 19.0775 9.93929 18.2513C8.32447 18.1011 6.85986 18.051 5.60806 18.051C2.94173 18.051 1.22676 18.2889 1.1141 18.3014L0 18.4516V27.7024C0 36.0269 2.12806 42.361 6.33411 46.5169C11.116 51.2487 16.8492 51.3864 17.4376 51.3864C17.4751 51.3864 17.5377 51.3864 17.6128 51.3864C18.3764 51.3864 20.9051 51.2362 23.7466 49.4962C25.061 48.6951 26.2628 47.6561 27.3518 46.4043C27.3518 46.4043 28.0779 45.6157 28.9416 44.3263C29.0918 44.1135 29.242 43.8756 29.3923 43.6253C29.7177 43.0995 30.0557 42.4987 30.3561 41.8603C30.4062 41.7476 30.4563 41.6349 30.5064 41.5223C30.7817 40.9089 31.0446 40.258 31.2574 39.5695C31.7957 38.1299 32.2464 36.5777 32.6219 34.9128C33.9738 28.8415 38.1423 24.673 45.0272 22.52Z" fill="#B22222"/>
<path d="M81.8559 22.5574C79.2522 22.5574 77.0991 21.6937 75.3966 19.9787C73.6942 18.2513 72.8555 16.1357 72.8555 13.6321C72.8555 11.1285 73.7067 9.01297 75.3966 7.28549C77.0991 5.55801 79.2522 4.70679 81.8559 4.70679C83.4332 4.70679 84.8727 5.08233 86.1996 5.83341C87.514 6.58449 88.553 7.59844 89.2916 8.88779L87.3012 10.0395C86.813 9.08808 86.0745 8.32448 85.0981 7.76117C84.1217 7.19786 83.0451 6.90995 81.8684 6.90995C79.8781 6.90995 78.2632 7.54837 77.0114 8.8252C75.7596 10.102 75.1337 11.7043 75.1337 13.6196C75.1337 15.5223 75.7596 17.1121 77.0114 18.389C78.2632 19.6658 79.8906 20.3042 81.8684 20.3042C83.0451 20.3042 84.1217 20.0163 85.0981 19.453C86.0745 18.8897 86.813 18.1386 87.3012 17.1997L89.2916 18.3264C88.5656 19.6032 87.5391 20.6297 86.2122 21.3933C84.8853 22.1819 83.4332 22.5574 81.8559 22.5574Z" fill="#B22222"/>
<path d="M97.8408 9.6264C99.2804 9.6264 100.445 10.077 101.308 10.9909C102.172 11.9047 102.61 13.1314 102.61 14.6962V22.2445H100.47V14.8214C100.47 13.8199 100.194 13.0438 99.656 12.493C99.1177 11.9422 98.3666 11.6668 97.4152 11.6668C96.3512 11.6668 95.4875 12.0048 94.8365 12.6683C94.1856 13.3317 93.8476 14.3582 93.8476 15.7352V22.2571H91.707V5.01978H93.8476V11.7169C94.7364 10.3149 96.0633 9.6264 97.8408 9.6264Z" fill="#B22222"/>
<path d="M107.092 17.0745C107.305 18.1761 107.806 19.0273 108.607 19.6282C109.408 20.2291 110.384 20.542 111.549 20.542C113.176 20.542 114.353 19.9412 115.091 18.752L116.906 19.7909C115.705 21.6436 113.902 22.5699 111.499 22.5699C109.546 22.5699 107.956 21.9566 106.742 20.7423C105.515 19.5155 104.914 17.9758 104.914 16.1106C104.914 14.258 105.515 12.7183 106.704 11.4915C107.906 10.2648 109.446 9.65137 111.348 9.65137C113.151 9.65137 114.628 10.2898 115.767 11.5541C116.906 12.8309 117.482 14.3581 117.482 16.1482C117.482 16.4612 117.457 16.7741 117.407 17.1121H107.092V17.0745ZM111.348 11.6417C110.197 11.6417 109.245 11.9672 108.494 12.6181C107.743 13.2691 107.267 14.1328 107.092 15.2094H115.304C115.129 14.0452 114.666 13.1564 113.927 12.5555C113.201 11.9422 112.337 11.6417 111.348 11.6417Z" fill="#B22222"/>
<path d="M125.895 6.77234C123.729 6.59709 122.653 7.52341 122.653 9.57637V9.93939H125.895V12.0049H122.653V22.2446H120.512V12.0049H118.547V9.93939H120.512V9.57637C120.512 7.92399 120.975 6.65968 121.902 5.80845C122.828 4.95723 124.155 4.58169 125.895 4.70687V6.77234Z" fill="#B22222"/>
<path d="M83.6838 31.3326H76.0603V36.9156H83.3708V39.0812H76.0603V46.3918H73.7695V29.167H83.6838V31.3326Z" fill="#B22222"/>
<path d="M87.3134 31.8459C86.9003 31.8459 86.5623 31.7082 86.2744 31.4328C85.999 31.1574 85.8613 30.8195 85.8613 30.4189C85.8613 30.0308 85.999 29.6803 86.2744 29.3924C86.5498 29.1045 86.9003 28.9668 87.3134 28.9668C87.7015 28.9668 88.0395 29.1045 88.3274 29.3924C88.6028 29.6803 88.7405 30.0183 88.7405 30.4189C88.7405 30.8069 88.6028 31.1449 88.3274 31.4328C88.052 31.7082 87.714 31.8459 87.3134 31.8459ZM86.2369 46.3918V34.0867H88.3774V46.3918H86.2369Z" fill="#B22222"/>
<path d="M97.7783 33.7737C99.2179 33.7737 100.382 34.2243 101.246 35.1381C102.11 36.052 102.548 37.2787 102.548 38.8435V46.3918H100.407V38.9686C100.407 37.9672 100.132 37.1911 99.5935 36.6403C99.0552 36.0895 98.3041 35.8141 97.3527 35.8141C96.2887 35.8141 95.425 36.1521 94.774 36.8156C94.1231 37.479 93.7851 38.5055 93.7851 39.8825V46.4043H91.6445V34.0991H93.7851V35.8642C94.6614 34.4622 95.9883 33.7737 97.7783 33.7737Z" fill="#B22222"/>
<path d="M115.705 29.167H117.846V46.3918H115.705V44.2762C114.641 45.9036 113.089 46.7172 111.061 46.7172C109.334 46.7172 107.869 46.0913 106.655 44.8395C105.441 43.5877 104.84 42.0605 104.84 40.2454C104.84 38.4428 105.441 36.9156 106.655 35.6513C107.869 34.3995 109.334 33.7736 111.061 33.7736C113.089 33.7736 114.641 34.5873 115.705 36.2146V29.167ZM111.324 44.6392C112.576 44.6392 113.615 44.2136 114.454 43.3749C115.292 42.5362 115.705 41.4847 115.705 40.2329C115.705 38.9811 115.292 37.9421 114.454 37.0909C113.615 36.2522 112.576 35.8266 111.324 35.8266C110.097 35.8266 109.058 36.2522 108.22 37.0909C107.381 37.9296 106.968 38.9811 106.968 40.2329C106.968 41.4847 107.381 42.5237 108.22 43.3749C109.071 44.2136 110.097 44.6392 111.324 44.6392Z" fill="#B22222"/>
<path d="M122.59 41.2218C122.803 42.3233 123.304 43.1746 124.105 43.7754C124.906 44.3763 125.882 44.6892 127.047 44.6892C128.674 44.6892 129.851 44.0884 130.589 42.8992L132.404 43.9382C131.203 45.7908 129.4 46.7172 126.997 46.7172C125.044 46.7172 123.454 46.1038 122.24 44.8895C121.013 43.6628 120.412 42.1231 120.412 40.2579C120.412 38.4052 121.013 36.8655 122.202 35.6387C123.404 34.412 124.944 33.7986 126.846 33.7986C128.649 33.7986 130.126 34.437 131.265 35.7013C132.404 36.9782 132.98 38.5054 132.98 40.2954C132.98 40.6084 132.955 40.9213 132.905 41.2593H122.59V41.2218ZM126.846 35.7889C125.695 35.7889 124.743 36.1144 123.992 36.7654C123.241 37.4163 122.765 38.28 122.59 39.3566H130.802C130.627 38.1924 130.164 37.3036 129.425 36.7028C128.699 36.0894 127.835 35.7889 126.846 35.7889Z" fill="#B22222"/>
<path d="M137.573 36.1521C138.274 34.6249 139.564 33.8613 141.416 33.8613V36.1021C140.365 36.052 139.464 36.3274 138.713 36.9408C137.961 37.5416 137.586 38.518 137.586 39.87V46.3918H135.445V34.0867H137.586V36.1521H137.573Z" fill="#B22222"/>
</svg>
